# File created by Blade
# Date/Time:  Mon Sep 22 17:46:01 2014
# Frame Rate: 120.000 fps
#------------------------------------------------------
:FULLY-SPECIFIED
:DEGREES
2975
root 4.456754 37.217618 5.942911 0.703086 -41.630313 -14.032952
RightUpLeg 14.738126 -29.772628 -19.319597
RightLeg 110.199513 -0.000000 -0.000000
RightFoot -8.852066 -24.303777 13.366568
RightToeBase -3.740818 -0.000000 0.000000
LeftUpLeg 19.031092 16.432285 3.637531
LeftLeg -5.922790 -0.000000 0.000000
LeftFoot -16.567059 29.278880 -13.867783
LeftToeBase 2.633227 -0.000000 -0.000000
Spine 12.763075 -2.765345 -12.708119
RightShoulder -1.898379 -33.243311 -4.064082
RightArm 13.130894 -10.989320 70.576837
RightForeArm 8.149918 -0.000000 65.697504
RightHand -1.647879 0.000000 -22.969777
RightHandThumb1 -24.326973 -0.000000 -32.862282
LeftShoulder -18.009029 32.971680 5.787005
LeftArm 50.153097 -41.806802 -75.889985
LeftForeArm 27.304979 -0.000000 108.244810
LeftHand -35.153960 -0.000000 20.280066
LeftHandThumb1 -26.253704 0.000000 33.147579
Head 31.317786 27.770444 24.156705
2976
root 4.452046 37.215894 5.935008 0.704545 -41.605592 -14.052858
RightUpLeg 14.671814 -29.653400 -19.077694
RightLeg 109.335166 -0.000000 -0.000000
RightFoot -8.986056 -24.502913 13.325135
RightToeBase -3.797237 -0.000000 0.000000
LeftUpLeg 19.054159 16.438209 3.670017
LeftLeg -5.965584 -0.000000 0.000000
LeftFoot -16.528196 29.294533 -13.795314
LeftToeBase 2.574627 -0.000000 -0.000000
Spine 12.809715 -2.788082 -12.777884
RightShoulder -1.937249 -33.244711 -4.011017
RightArm 13.113553 -11.012513 70.680918
RightForeArm 8.163579 0.000000 65.727082
RightHand -1.649766 -0.000000 -23.033625
RightHandThumb1 -24.326973 -0.000000 -32.862282
LeftShoulder -17.974787 32.954438 5.812840
LeftArm 50.171084 -41.789910 -75.892378
LeftForeArm 27.110426 0.000000 108.437635
LeftHand -35.045284 -0.000000 19.969250
LeftHandThumb1 -26.253704 0.000000 33.147579
Head 31.275480 27.746038 24.221392
2977
root 4.446122 37.214658 5.928757 0.658730 -41.567455 -14.048589
RightUpLeg 14.642034 -29.523303 -18.854751
RightLeg 108.565092 -0.000000 -0.000000
RightFoot -9.208169 -24.650286 13.375316
RightToeBase -3.891745 -0.000000 0.000000
LeftUpLeg 19.113583 16.471524 3.707452
LeftLeg -6.004845 -0.000000 0.000000
LeftFoot -16.490723 29.253241 -13.747792
LeftToeBase 2.564041 -0.000000 -0.000000
Spine 12.890106 -2.818055 -12.882058
RightShoulder -1.985491 -33.250498 -3.934384
RightArm 13.115867 -11.072952 70.748919
RightForeArm 8.245673 -0.000000 65.773777
RightHand -1.583551 -0.000000 -23.083461
RightHandThumb1 -24.326973 -0.000000 -32.862282
LeftShoulder -17.930834 32.925533 5.878250
LeftArm 50.141070 -41.735615 -75.829489
LeftForeArm 27.143006 -0.000000 108.594011
LeftHand -35.038708 0.000000 19.805457
LeftHandThumb1 -26.253704 0.000000 33.147579
Head 31.254582 27.708118 24.311168
2978
root 4.441298 37.213264 5.919879 0.607599 -41.502327 -14.030202
RightUpLeg 14.609301 -29.404143 -18.619828
RightLeg 107.918272 -0.000000 -0.000000
RightFoot -9.444067 -24.685099 13.430367
RightToeBase -3.636082 -0.000000 0.000000
LeftUpLeg 19.149465 16.494719 3.737691
LeftLeg -6.022632 -0.000000 0.000000
LeftFoot -16.445490 29.206034 -13.660046
LeftToeBase 2.577132 -0.000000 -0.000000
Spine 12.979773 -2.864137 -13.008973
RightShoulder -2.051326 -33.245593 -3.828003
RightArm 13.129203 -11.136205 70.794137
RightForeArm 8.244206 0.000000 65.790478
RightHand -1.580081 -0.000000 -23.126313
RightHandThumb1 -24.326973 -0.000000 -32.862282
LeftShoulder -17.889114 32.928307 5.972024
LeftArm 50.161633 -41.668652 -75.799329
LeftForeArm 27.177980 -0.000000 108.723396
LeftHand -35.027016 -0.000000 19.639857
LeftHandThumb1 -26.253704 0.000000 33.147579
Head 31.242818 27.686344 24.428284
2979
root 4.436288 37.212806 5.910972 0.557081 -41.415715 -14.016092
RightUpLeg 14.586198 -29.318444 -18.393511
RightLeg 107.372659 -0.000000 -0.000000
RightFoot -9.685574 -24.747625 13.489130
RightToeBase -3.577724 -0.000000 0.000000
LeftUpLeg 19.177739 16.506089 3.774601
LeftLeg -6.028067 -0.000000 0.000000
LeftFoot -16.382830 29.155325 -13.568470
LeftToeBase 2.505900 -0.000000 -0.000000
Spine 13.071016 -2.954556 -13.133989
RightShoulder -2.084441 -33.239767 -3.726986
RightArm 13.141032 -11.187390 70.825617
RightForeArm 8.212302 -0.000000 65.817753
RightHand -1.649645 -0.000000 -23.067285
RightHandThumb1 -24.326973 -0.000000 -32.862282
LeftShoulder -17.891800 32.926836 6.029601
LeftArm 50.178065 -41.576658 -75.709248
LeftForeArm 27.201734 -0.000000 108.820343
LeftHand -35.045130 -0.000000 19.507581
LeftHandThumb1 -26.253704 0.000000 33.147579
Head 31.239070 27.666827 24.495250
2980
root 4.434863 37.212234 5.902278 0.502065 -41.334569 -13.967467
RightUpLeg 14.517451 -29.225273 -18.163716
RightLeg 106.957618 -0.000000 -0.000000
RightFoot -9.830931 -24.855530 13.520288
RightToeBase -3.792388 -0.000000 0.000000
LeftUpLeg 19.168749 16.507927 3.766549
LeftLeg -6.008589 -0.000000 0.000000
LeftFoot -16.346873 29.121933 -13.500922
LeftToeBase 2.484393 -0.000000 -0.000000
Spine 13.140814 -3.046156 -13.285724
RightShoulder -2.140067 -33.244995 -3.604728
RightArm 13.184474 -11.267076 70.824016
RightForeArm 8.247884 -0.000000 65.821783
RightHand -1.586155 -0.000000 -22.979636
RightHandThumb1 -24.326973 -0.000000 -32.862282
LeftShoulder -17.909888 32.939036 6.079375
LeftArm 50.211805 -41.487984 -75.618507
LeftForeArm 27.159578 -0.000000 108.897641
LeftHand -34.989693 -0.000000 19.399475
LeftHandThumb1 -26.253704 0.000000 33.147579
Head 31.251967 27.674289 24.588703
2981
root 4.432609 37.212069 5.893794 0.464111 -41.228257 -13.946185
RightUpLeg 14.462452 -29.141421 -17.915942
RightLeg 106.647508 -0.000000 -0.000000
RightFoot -10.030374 -24.864551 13.671746
RightToeBase -3.687380 -0.000000 0.000000
LeftUpLeg 19.157007 16.445468 3.765738
LeftLeg -5.993079 -0.000000 0.000000
LeftFoot -16.306365 29.141358 -13.392706
LeftToeBase 2.451184 -0.000000 -0.000000
Spine 13.209813 -3.160927 -13.388377
RightShoulder -2.187998 -33.262334 -3.500239
RightArm 13.222084 -11.329274 70.828584
RightForeArm 8.153569 -0.000000 65.814916
RightHand -1.588168 -0.000000 -22.790894
RightHandThumb1 -24.326973 -0.000000 -32.862282
LeftShoulder -17.899482 32.926167 6.106561
LeftArm 50.211055 -41.423311 -75.466903
LeftForeArm 27.210007 -0.000000 108.935904
LeftHand -35.040308 -0.000000 19.209012
LeftHandThumb1 -26.253704 0.000000 33.147579
Head 31.291798 27.696125 24.646543
2982
root 4.429910 37.213041 5.884636 0.405411 -41.109442 -13.912078
RightUpLeg 14.423256 -29.085179 -17.694706
RightLeg 106.451956 -0.000000 -0.000000
RightFoot -10.105360 -24.905517 13.664491
RightToeBase -3.664959 -0.000000 0.000000
LeftUpLeg 19.154197 16.357158 3.756991
LeftLeg -5.980576 -0.000000 0.000000
LeftFoot -16.256975 29.169988 -13.328115
LeftToeBase 2.371155 -0.000000 -0.000000
Spine 13.295218 -3.268077 -13.520587
RightShoulder -2.230669 -33.253652 -3.371388
RightArm 13.229661 -11.398981 70.828802
RightForeArm 8.078887 -0.000000 65.834619
RightHand -1.679203 -0.000000 -22.708055
RightHandThumb1 -24.326973 -0.000000 -32.862282
LeftShoulder -17.890284 32.922622 6.189282
LeftArm 50.231078 -41.305195 -75.334791
LeftForeArm 27.286797 -0.000000 108.932281
LeftHand -35.098132 -0.000000 19.287456
LeftHandThumb1 -26.253704 0.000000 33.147579
Head 31.341425 27.712238 24.755092
2983
root 4.430953 37.214437 5.879076 0.315817 -40.990720 -13.843365
RightUpLeg 14.386197 -29.005946 -17.517559
RightLeg 106.341736 -0.000000 -0.000000
RightFoot -10.184805 -24.910418 13.707389
RightToeBase -3.467630 -0.000000 0.000000
LeftUpLeg 19.164112 16.227691 3.699633
LeftLeg -5.983052 -0.000000 0.000000
LeftFoot -16.200472 29.241652 -13.268812
LeftToeBase 2.335992 -0.000000 -0.000000
Spine 13.393117 -3.375834 -13.660161
RightShoulder -2.277633 -33.259743 -3.257333
RightArm 13.264163 -11.504632 70.821796
RightForeArm 8.195973 -0.000000 65.881635
RightHand -1.696910 -0.000000 -22.731795
RightHandThumb1 -24.326973 -0.000000 -32.862282
LeftShoulder -17.875653 32.917550 6.251621
LeftArm 50.260662 -41.226721 -75.219541
LeftForeArm 27.321880 -0.000000 108.912265
LeftHand -35.111649 -0.000000 19.123547
LeftHandThumb1 -26.253704 0.000000 33.147579
Head 31.392588 27.725151 24.846947
2984
root 4.430570 37.217098 5.872566 0.228976 -40.845274 -13.798462
RightUpLeg 14.376401 -28.944117 -17.331815
RightLeg 106.316738 -0.000000 -0.000000
RightFoot -10.210935 -24.818429 13.842897
RightToeBase -3.445313 -0.000000 0.000000
LeftUpLeg 19.172464 16.118360 3.683838
LeftLeg -5.956785 -0.000000 0.000000
LeftFoot -16.178379 29.269032 -13.232248
LeftToeBase 2.339753 -0.000000 -0.000000
Spine 13.510766 -3.496715 -13.781332
RightShoulder -2.320577 -33.279567 -3.126659
RightArm 13.309191 -11.579969 70.793361
RightForeArm 8.199480 -0.000000 65.906423
RightHand -1.714274 -0.000000 -22.721528
RightHandThumb1 -24.326973 -0.000000 -32.862282
LeftShoulder -17.855376 32.899676 6.333854
LeftArm 50.267271 -41.132437 -75.080116
LeftForeArm 27.357149 0.000000 108.874152
LeftHand -35.164030 -0.000000 19.043847
LeftHandThumb1 -26.253704 0.000000 33.147579
Head 31.428802 27.729211 24.922734
2985
root 4.430458 37.219228 5.868217 0.133196 -40.703173 -13.755464
RightUpLeg 14.389115 -28.873909 -17.170672
RightLeg 106.363825 -0.000000 -0.000000
RightFoot -10.212876 -24.733245 13.913666
RightToeBase -3.563046 -0.000000 0.000000
LeftUpLeg 19.200347 15.990552 3.666827
LeftLeg -5.942268 -0.000000 0.000000
LeftFoot -16.129071 29.300543 -13.171966
LeftToeBase 2.279860 -0.000000 -0.000000
Spine 13.636388 -3.601780 -13.887507
RightShoulder -2.373821 -33.272790 -3.003786
RightArm 13.319862 -11.659103 70.780173
RightForeArm 8.191057 -0.000000 65.925727
RightHand -1.657972 -0.000000 -22.705215
RightHandThumb1 -24.326973 -0.000000 -32.862282
LeftShoulder -17.814167 32.900252 6.438737
LeftArm 50.280744 -41.036272 -74.961493
LeftForeArm 27.314089 -0.000000 108.803969
LeftHand -35.104171 -0.000000 19.185729
LeftHandThumb1 -26.253704 0.000000 33.147579
Head 31.449394 27.727876 24.978759
2986
root 4.430888 37.221025 5.864368 0.024781 -40.571694 -13.712382
RightUpLeg 14.418774 -28.778488 -17.016179
RightLeg 106.480051 -0.000000 -0.000000
RightFoot -10.196868 -24.612003 13.941975
RightToeBase -3.712440 -0.000000 0.000000
LeftUpLeg 19.241531 15.876357 3.650135
LeftLeg -5.925019 -0.000000 0.000000
LeftFoot -16.081174 29.340096 -13.109637
LeftToeBase 2.197908 -0.000000 -0.000000
Spine 13.777119 -3.683790 -13.993034
RightShoulder -2.438797 -33.342142 -2.884026
RightArm 13.423732 -11.733154 70.743822
RightForeArm 8.206019 -0.000000 65.931960
RightHand -1.675915 0.000000 -22.691278
RightHandThumb1 -24.326973 -0.000000 -32.862282
LeftShoulder -17.742748 32.872917 6.586194
LeftArm 50.258634 -40.962111 -74.868948
LeftForeArm 27.340440 -0.000000 108.743803
LeftHand -35.186258 0.000000 18.927596
LeftHandThumb1 -26.253704 0.000000 33.147579
Head 31.457968 27.731608 25.030006
